<svg width="185" height="277" viewBox="0 0 185 277" fill="none" xmlns="http://www.w3.org/2000/svg">
<rect width="185" height="277" rx="20" fill="white"/>
<path d="M35.0859 58H29.4844V30.2969L24.9844 32.5703V26.6875L29.9531 23.9219H35.0859V58ZM41.8594 53.0312L53.6484 37.4219C54.2578 36.625 54.7266 35.8047 55.0547 34.9609C55.3984 34.1016 55.5703 33.3047 55.5703 32.5703V32.5234C55.5703 31.3828 55.2188 30.5 54.5156 29.875C53.8281 29.25 52.8438 28.9375 51.5625 28.9375C50.3281 28.9375 49.3281 29.3203 48.5625 30.0859C47.8125 30.8359 47.3594 31.9062 47.2031 33.2969V33.3203H41.4375V33.2969C41.6562 31.25 42.2031 29.5 43.0781 28.0469C43.9531 26.5938 45.1094 25.4844 46.5469 24.7188C47.9844 23.9531 49.6406 23.5703 51.5156 23.5703C53.5938 23.5703 55.3672 23.9219 56.8359 24.625C58.3047 25.3125 59.4219 26.3203 60.1875 27.6484C60.9688 28.9766 61.3594 30.5781 61.3594 32.4531V32.4766C61.3594 33.8516 61.0938 35.25 60.5625 36.6719C60.0469 38.0781 59.3281 39.3984 58.4062 40.6328L49.2656 52.6328H61.5469V58H41.8594V53.0312Z" fill="black"/>
<path fill-rule="evenodd" clip-rule="evenodd" d="M63.6672 95.8532C63.6672 95.8532 58.6132 90.8227 52.6802 94.1967C53.9714 93.0478 54.9522 91.5933 55.5325 89.9672C56.1127 88.341 56.2737 86.5953 56.0007 84.8908C54.7067 75.6336 43.4512 76.0112 43.4512 76.0112C43.4512 76.0112 32.5497 75.3169 30.9016 84.8786C30.7583 86.6049 31.0004 88.3415 31.6105 89.9633C32.2205 91.585 33.1834 93.0517 34.4297 94.2576C28.4723 90.7496 23.3572 95.8532 23.3572 95.8532C21.1874 98.1629 19.9861 101.214 20.0001 104.38C20.0001 111.176 24.3583 116.475 32.0736 116.475C33.6633 116.449 35.228 116.075 36.6563 115.378C38.0847 114.681 39.3418 113.679 40.3382 112.443C40.3382 112.443 41.8398 115.671 39.3128 120.738C38.4224 122.601 36.9126 124.099 35.0401 124.977L36.0777 126C38.4191 124.938 40.9336 124.306 43.5 124.136C46.0649 124.299 48.5793 124.922 50.9223 125.976L51.9599 124.952C50.0375 124.045 48.4952 122.493 47.6018 120.568C45.1602 115.586 46.6618 112.419 46.6618 112.419C47.6582 113.655 48.9153 114.657 50.3437 115.354C51.772 116.051 53.3367 116.425 54.9264 116.45C62.6295 116.45 66.9999 111.152 66.9999 104.355C67.0142 101.201 65.8223 98.1606 63.6672 95.8532Z" fill="black"/>
</svg>
