<svg width="185" height="276" viewBox="0 0 185 276" fill="none" xmlns="http://www.w3.org/2000/svg">
<rect width="185" height="276" rx="20" fill="white"/>
<g clip-path="url(#clip0_1_699)">
<rect x="8.80957" y="8.78981" width="167.381" height="258.42" rx="14" fill="url(#paint0_linear_1_699)"/>
<path opacity="0.1" fill-rule="evenodd" clip-rule="evenodd" d="M50.6616 5.59941L46.0146 10.0019H41.3538V14.3904L36.7065 18.7927L32.0594 14.3904V10.0019H27.4121L22.7651 5.59941H50.6616ZM18.1177 36.3749H13.4569V40.7772L8.80957 45.1657V18.7929L13.4569 23.1953V27.5839H18.1177L22.7651 31.9862L18.1177 36.3749ZM32.0595 67.1502V62.7479H27.4121L22.7651 58.3592L27.4121 53.9569H32.0595V49.5684L36.7065 45.1659L41.3538 49.5684V53.9569H46.0146L50.6616 58.3592L46.0146 62.7479H41.3538V67.1502L36.7065 71.5526L32.0595 67.1502ZM18.1177 89.1347H13.4569V93.5233L8.80968 97.9256L12.893 101.793H18.6813V107.251L22.7651 111.119L18.6813 114.972V120.431H12.893L8.80957 124.298V97.9257V97.9255V71.5529L13.4569 75.9414V80.3437H18.1177L22.7651 84.7324L18.1177 89.1347ZM32.0595 115.507V119.91L36.7065 124.298L41.3538 119.91V115.507H46.0146L50.6616 111.119L46.0146 106.716H41.3538V102.314L36.7066 97.9256L40.7899 94.0582H46.5644V88.5998L50.6616 84.7324L46.5644 80.8786V75.4065H40.7899L36.7065 71.5529L32.6231 75.4065H26.8485V80.8786L22.7651 84.7324L26.8485 88.5998V94.0582H32.6231L36.7064 97.9256L32.0595 102.314V106.716H27.4121L22.7651 111.119L27.4121 115.507H32.0595ZM26.8485 133.624V128.166H32.6231L36.7065 124.299L40.7899 128.166H46.5644V133.624L50.6616 137.492L46.5644 141.359V146.818H40.7899L36.7069 150.685L41.3538 155.073V159.475H46.0146L50.6616 163.864L46.0146 168.266H41.3538V172.655L36.7065 177.057L32.0595 172.655V168.266H27.4121L22.7651 163.864L27.4121 159.475H32.0595V155.073L36.7061 150.685L32.6231 146.818H26.8485V141.359L22.7651 137.492L26.8485 133.624ZM59.9561 141.894V146.283L64.6031 150.685L60.52 154.538H54.7455V160.01L50.6617 163.864L54.7455 167.731V173.19H60.52L64.6035 177.057L68.6869 173.19H74.4614V167.731L78.5586 163.864L74.4614 160.01V154.538H68.6869L64.6039 150.685L69.2505 146.283V141.894H73.8978L78.5586 137.492L73.9116 133.09H69.2505V128.701L64.6035 124.299L59.9561 128.701V133.09H55.3091L50.6617 137.492L55.3091 141.894H59.9561ZM82.6423 180.925V186.384L78.5589 190.251L82.6423 194.105V199.563H88.4172L92.5006 203.431L96.5841 199.563H102.359V194.105L106.456 190.251L111.103 194.64H115.75V199.042L120.397 203.431L125.044 199.042V194.64H129.692L134.352 190.251L138.436 194.105V199.563H144.21L148.294 203.431L152.377 199.563H158.152V194.105L162.235 190.251L166.896 194.64H171.543V199.042L176.19 203.431V177.058L171.543 181.446V185.849H166.896L162.235 190.251L158.152 186.384V180.925H152.377L148.294 177.058L144.21 180.925H138.436V186.384L134.352 190.251L129.692 185.849H125.044V181.446L120.397 177.058L115.75 181.446V185.849H111.103L106.456 190.251L102.359 186.384V180.925H96.5841L92.5006 177.058L88.4172 180.925H82.6423ZM87.8533 168.266V172.655L92.5006 177.057L97.1476 172.655V168.266H101.795L106.456 163.864L110.539 167.731V173.19H116.313L120.397 177.057L124.481 173.19H130.255V167.731L134.352 163.864L138.999 168.266H143.647V172.655L148.294 177.057L152.941 172.655V168.266H157.588L162.235 163.864L166.332 167.731V173.19H172.107L176.19 177.057V150.685V150.684V124.299L171.543 128.701V133.09H166.896L162.235 137.492L158.152 133.624V128.166H152.377L148.294 124.299L144.21 128.166H138.436V133.624L134.352 137.492L129.692 133.09H125.044V128.701L120.397 124.299L115.75 128.701V133.09H111.103L106.456 137.492L102.359 133.624V128.166H96.5841L92.5006 124.299L88.4172 128.166H82.6423V133.624L78.5589 137.492L82.6423 141.359V146.818H88.4172L92.5002 150.685L87.8533 155.073V159.475H83.2063L78.5589 163.864L83.2063 168.266H87.8533ZM162.235 137.492L166.896 141.894H171.543V146.283L176.19 150.685L172.107 154.538H166.332V160.01L162.235 163.864L157.588 159.475H152.941V155.073L148.294 150.685L152.377 146.818H158.152V141.359L162.235 137.492ZM134.352 137.492L138.436 141.359V146.818H144.21L148.293 150.685L143.647 155.073V159.475H138.999L134.352 163.864L130.255 160.01V154.538H124.481L120.398 150.685L125.044 146.283V141.894H129.692L134.352 137.492ZM106.456 137.492L111.103 141.894H115.75V146.283L120.397 150.685L116.313 154.538H110.539V160.01L106.456 163.864L101.809 159.475H97.1476V155.073L92.501 150.685L96.5841 146.818H102.359V141.359L106.456 137.492ZM26.8485 186.384V180.925H32.6231L36.7065 177.058L40.7899 180.925H46.5644V186.384L50.6616 190.251L46.5644 194.105V199.563H40.7899L36.7065 203.431L32.6231 199.563H26.8485V194.105L22.7651 190.251L26.8485 186.384ZM13.4569 141.894H18.1177L22.7651 137.492L18.1177 133.09H13.4569V128.701L8.80957 124.299V150.684V150.685V177.057L12.893 173.19H18.6813V167.731L22.7651 163.864L18.6813 160.01V154.538H12.893L8.80998 150.685L13.4569 146.283V141.894ZM59.9561 199.042V194.64H55.3091L50.6617 190.251L55.3091 185.849H59.9561V181.446L64.6035 177.058L69.2505 181.446V185.849H73.9116L78.5586 190.251L73.8978 194.64H69.2505V199.042L64.6035 203.431L59.9561 199.042ZM18.1177 194.64H13.4569V199.042L8.80957 203.431V177.058L13.4569 181.446V185.849H18.1177L22.7651 190.251L18.1177 194.64ZM97.1476 115.507H101.795L106.456 111.119L101.809 106.716H97.1476V102.314L92.5007 97.9256L96.5841 94.0582H102.359V88.5998L106.456 84.7326L111.103 89.1347H115.75V93.5233L120.397 97.9256L116.313 101.793H110.539V107.251L106.456 111.105L110.539 114.972V120.431H116.313L120.397 124.298L124.481 120.431H130.255V114.972L134.352 111.119L138.999 115.507H143.647V119.91L148.294 124.298L152.941 119.91V115.507H157.588L162.235 111.119L157.588 106.716H152.941V102.314L148.294 97.9255L152.377 94.0582H158.152V88.5998L162.235 84.7324L166.896 89.1347H171.543V93.5233L176.19 97.9255V71.5529L171.543 75.9414V80.3437H166.896L162.235 84.7324L158.152 80.8786V75.4065H152.377L148.294 71.5529L144.21 75.4065H138.436V80.8786L134.352 84.7324L129.692 80.3437H125.044V75.9414L120.397 71.5529L115.75 75.9414V80.3437H111.103L106.456 84.7323L102.359 80.8786V75.4065H96.5841L92.5006 71.5529L88.4172 75.4065H82.6423V80.8786L78.5589 84.7324L82.6423 88.5998V94.0582H88.4172L92.5005 97.9256L87.8533 102.314V106.716H83.2063L78.5589 111.119L83.2063 115.507H87.8533V119.91L92.5006 124.298L97.1476 119.91V115.507ZM134.352 84.7324L138.436 88.5998V94.0582H144.21L148.294 97.9255L143.647 102.314V106.716H138.999L134.352 111.119L130.255 107.251V101.793H124.481L120.397 97.9256L125.044 93.5233V89.1347H129.692L134.352 84.7324ZM172.107 101.793L176.19 97.9257V124.298L172.107 120.431H166.332V114.972L162.235 111.105L166.332 107.251V101.793H172.107ZM74.4614 101.793H68.6869L64.6036 97.9256L69.2505 93.5233V89.1347H73.8978L78.5586 84.7324L73.9116 80.3437H69.2505V75.9414L64.6035 71.5529L59.9561 75.9414V80.3437H55.3091L50.6617 84.7324L55.3091 89.1347H59.9561V93.5233L64.6034 97.9256L60.52 101.793H54.7455V107.251L50.6617 111.105L54.7455 114.972V120.431H60.52L64.6035 124.298L68.6869 120.431H74.4614V114.972L78.5586 111.119L74.4614 107.251V101.793ZM130.255 207.517H124.481L120.397 203.65L116.313 207.517H110.539V212.976L106.456 216.843L101.809 212.454H97.1476V208.052L92.5006 203.65L87.8533 208.052V212.454H83.2063L78.5589 216.843L83.2063 221.245H87.8533V225.634L92.5006 230.036L97.1476 225.634V221.245H101.795L106.456 216.843L110.539 220.71V226.169H116.313L120.397 230.036L124.481 226.169H130.255V220.71L134.352 216.843L138.999 221.245H143.647V225.634L148.294 230.036L152.941 225.634V221.245H157.588L162.235 216.843L166.332 220.71V226.169H172.107L176.19 230.036V203.65L172.107 207.517H166.332V212.976L162.235 216.843L157.588 212.454H152.941V208.052L148.294 203.65L143.647 208.052V212.454H138.999L134.352 216.843L130.255 212.976V207.517ZM74.4614 207.517H68.6869L64.6035 203.65L60.52 207.517H54.7455V212.976L50.6617 216.843L54.7455 220.71V226.169H60.52L64.6035 230.036L68.6869 226.169H74.4614V220.71L78.5586 216.843L74.4614 212.976V207.517ZM12.893 207.517H18.6813V212.976L22.7651 216.843L18.6813 220.71V226.169H12.893L8.80957 230.036V203.65L12.893 207.517ZM41.3538 221.245H46.0146L50.6616 216.843L46.0146 212.454H41.3538V208.052L36.7065 203.65L32.0595 208.052V212.454H27.4121L22.7651 216.843L27.4121 221.245H32.0595V225.634L36.7065 230.036L41.3538 225.634V221.245ZM18.6813 67.6851V62.2268L22.7651 58.3592L18.6813 54.4918V49.0335H12.893L8.80957 45.1659V71.5526L12.893 67.6851H18.6813ZM97.1476 62.7479H101.795L106.456 58.3593L110.539 62.2268V67.6851H116.313L120.397 71.5526L124.481 67.6851H130.255V62.2268L134.352 58.3592L138.999 62.7479H143.647V67.1502L148.294 71.5526L152.941 67.1502V62.7479H157.588L162.235 58.3592L166.332 62.2268V67.6851H172.107L176.19 71.5526V45.1659L172.107 49.0335H166.332V54.4918L162.235 58.3592L157.588 53.9569H152.941V49.5684L148.294 45.1659L143.647 49.5684V53.9569H138.999L134.352 58.3592L130.255 54.4918V49.0335H124.481L120.397 45.1659L116.313 49.0335H110.539V54.4918L106.456 58.3591L101.809 53.9569H97.1476V49.5684L92.5006 45.1659L87.8533 49.5684V53.9569H83.2063L78.5589 58.3592L83.2063 62.7479H87.8533V67.1502L92.5006 71.5526L97.1476 67.1502V62.7479ZM68.6869 49.0335H74.4614V54.4918L78.5586 58.3592L74.4614 62.2268V67.6851H68.6869L64.6035 71.5526L60.52 67.6851H54.7455V62.2268L50.6617 58.3592L54.7455 54.4918V49.0335H60.52L64.6035 45.1659L68.6869 49.0335ZM69.2505 36.3749H73.8978L78.5586 31.9862L73.9116 27.5839H69.2505V23.1953L64.6035 18.7929L59.9561 23.1953V27.5839H55.3091L50.6617 31.9862L55.3091 36.3749H59.9561V40.7772L64.6035 45.1657L69.2505 40.7772V36.3749ZM40.7899 22.6604H46.5644V28.1188L50.6616 31.9862L46.5644 35.84V41.312H40.7899L36.7065 45.1657L32.6231 41.312H26.8485V35.84L22.7651 31.9724L26.8485 28.1188V22.6604H32.6231L36.7065 18.7929L40.7899 22.6604ZM102.359 22.6604H96.5841L92.5006 18.7929L88.4172 22.6604H82.6423V28.1188L78.5589 31.9724L82.6423 35.84V41.312H88.4172L92.5006 45.1657L96.5841 41.312H102.359V35.84L106.456 31.9863L111.103 36.3749H115.75V40.7772L120.397 45.1657L125.044 40.7772V36.3749H129.692L134.352 31.9862L129.692 27.5839H125.044V23.1953L120.397 18.7929L115.75 23.1953V27.5839H111.103L106.456 31.986L102.359 28.1188V22.6604ZM18.6813 9.46698L22.7651 5.59941H8.80957V18.7927L12.893 14.9253H18.6813V9.46698ZM106.456 5.59953L101.809 10.0019H97.1477V14.3904L92.5006 18.7927L87.8533 14.3904V10.0019H83.2063L78.5589 5.59941H106.456H106.456H134.352L130.255 9.46698V14.9253H124.481L120.397 18.7927L116.313 14.9253H110.539V9.46698L106.456 5.59953ZM138.999 10.0019L134.352 5.59941H162.235H162.235H176.19V18.7927L172.107 14.9253H166.332V9.46698L162.235 5.59963L157.588 10.0019H152.941V14.3904L148.294 18.7927L143.647 14.3904V10.0019H138.999ZM74.4614 9.46698L78.5586 5.59941H50.6617L54.7455 9.46698V14.9253H60.52L64.6035 18.7927L68.6869 14.9253H74.4614V9.46698ZM41.3538 265.201V260.812L36.7065 256.41L32.0595 260.812V265.201H27.4121L22.7651 269.603H50.6616L46.0146 265.201H41.3538ZM12.893 260.277H18.6813V265.736L22.7651 269.603H8.80957V256.41L12.893 260.277ZM13.4569 247.618H18.1177L22.7651 243.216L18.1177 238.828H13.4569V234.425L8.80957 230.037V256.409L13.4569 252.021V247.618ZM97.1476 260.812V265.201H101.809L106.456 269.603H78.5589L83.2063 265.201H87.8533V260.812L92.5006 256.41L97.1476 260.812ZM134.352 269.603H106.456L110.539 265.736V260.277H116.313L120.397 256.41L124.481 260.277H130.255V265.736L134.352 269.603ZM162.235 269.603H134.352L138.999 265.201H143.647V260.812L148.294 256.41L152.941 260.812V265.201H157.588L162.235 269.603ZM162.235 269.603L166.332 265.736V260.277H172.107L176.19 256.41V269.603H162.235ZM74.4614 260.277H68.6869L64.6035 256.41L60.52 260.277H54.7455V265.736L50.6617 269.603H78.5586L74.4614 265.736V260.277ZM40.7899 233.89H46.5644V239.363L50.6616 243.216L46.5644 247.084V252.556H40.7899L36.7065 256.409L32.6231 252.556H26.8485V247.084L22.7651 243.216L26.8485 239.363V233.89H32.6231L36.7065 230.037L40.7899 233.89ZM69.2505 247.618H73.8978L78.5586 243.216L73.9116 238.828H69.2505V234.425L64.6035 230.037L59.9561 234.425V238.828H55.3091L50.6617 243.216L55.3091 247.618H59.9561V252.021L64.6035 256.409L69.2505 252.021V247.618ZM102.359 233.89H96.5841L92.5006 230.037L88.4172 233.89H82.6423V239.363L78.5589 243.216L82.6423 247.084V252.556H88.4172L92.5006 256.409L96.5841 252.556H102.359V247.084L106.456 243.216L111.103 247.618H115.75V252.021L120.397 256.409L125.044 252.021V247.618H129.692L134.352 243.216L138.436 247.084V252.556H144.21L148.294 256.409L152.377 252.556H158.152V247.084L162.235 243.216L166.896 247.618H171.543V252.021L176.19 256.409V230.037L171.543 234.425V238.828H166.896L162.235 243.216L158.152 239.363V233.89H152.377L148.294 230.037L144.21 233.89H138.436V239.363L134.352 243.216L129.692 238.828H125.044V234.425L120.397 230.037L115.75 234.425V238.828H111.103L106.456 243.216L102.359 239.363V233.89ZM171.543 36.3749V40.7772L176.19 45.1657V18.7929L171.543 23.1953V27.5839H166.896L162.235 31.9862L158.152 28.1188V22.6604H152.377L148.294 18.7929L144.21 22.6604H138.436V28.1188L134.352 31.9724L138.436 35.84V41.312H144.21L148.294 45.1657L152.377 41.312H158.152V35.84L162.235 31.9862L166.896 36.3749H171.543Z" fill="black"/>
</g>
<defs>
<linearGradient id="paint0_linear_1_699" x1="92.5" y1="8.78981" x2="92.5" y2="267.21" gradientUnits="userSpaceOnUse">
<stop stop-color="#3085E8"/>
<stop offset="1" stop-color="#1660B6"/>
</linearGradient>
<clipPath id="clip0_1_699">
<rect x="8.80957" y="8.78981" width="167.381" height="258.42" rx="14" fill="white"/>
</clipPath>
</defs>
</svg>
