<svg width="100" height="115" viewBox="0 0 100 115" fill="none" xmlns="http://www.w3.org/2000/svg">
<circle cx="50" cy="32.5" r="30" fill="#DD385F" stroke="#BC3353" stroke-width="4"/>
<path d="M48.8215 42.0118C49.134 42.3244 49.558 42.5 50 42.5C50.442 42.5 50.8659 42.3244 51.1785 42.0118L54.5118 38.6785C55.1627 38.0276 55.1627 36.9724 54.5118 36.3215C53.861 35.6706 52.8057 35.6706 52.1548 36.3215L51.6667 36.8096L51.6667 24.1667C51.6667 23.2462 50.9205 22.5 50 22.5C49.0795 22.5 48.3333 23.2462 48.3333 24.1667L48.3333 36.8096L47.8452 36.3215C47.1943 35.6706 46.139 35.6706 45.4882 36.3215C44.8373 36.9724 44.8373 38.0276 45.4882 38.6785L48.8215 42.0118Z" fill="white"/>
<path d="M11.0078 76.5605H12.6416V86.5H11.0078V76.5605ZM11.7734 84.9346H17.5293V86.5H11.7734V84.9346ZM21.6855 86.6025C21.0566 86.6025 20.5166 86.4818 20.0654 86.2402C19.6188 85.9987 19.277 85.6478 19.04 85.1875C18.8076 84.7227 18.6914 84.1644 18.6914 83.5127V82.3574C18.6914 81.7148 18.8076 81.1657 19.04 80.71C19.277 80.2497 19.6188 79.901 20.0654 79.6641C20.5166 79.4225 21.0566 79.3018 21.6855 79.3018C22.3145 79.3018 22.8522 79.4225 23.2988 79.6641C23.75 79.901 24.0918 80.2497 24.3242 80.71C24.5612 81.1657 24.6797 81.7148 24.6797 82.3574V83.5332C24.6797 84.1803 24.5612 84.734 24.3242 85.1943C24.0918 85.6501 23.75 85.9987 23.2988 86.2402C22.8522 86.4818 22.3145 86.6025 21.6855 86.6025ZM21.6855 85.0371C22.1185 85.0371 22.4535 84.9072 22.6904 84.6475C22.9274 84.3831 23.0459 84.0117 23.0459 83.5332V82.3574C23.0459 81.8835 22.9274 81.5166 22.6904 81.2568C22.4535 80.9971 22.1185 80.8672 21.6855 80.8672C21.2526 80.8672 20.9176 80.9971 20.6807 81.2568C20.4437 81.5166 20.3252 81.8835 20.3252 82.3574V83.5332C20.3252 84.0117 20.4414 84.3831 20.6738 84.6475C20.9108 84.9072 21.248 85.0371 21.6855 85.0371ZM25.7734 79.4043H27.4004L28.6582 84.1279L30.292 79.4043H31.3311L32.9648 84.1279L34.2227 79.4043H35.8496L33.6621 86.5H32.4385L30.8115 81.7354L29.1846 86.5H27.9609L25.7734 79.4043ZM42.3984 86.6025C41.7695 86.6025 41.2295 86.4818 40.7783 86.2402C40.3317 85.9987 39.9899 85.6478 39.7529 85.1875C39.5205 84.7227 39.4043 84.1644 39.4043 83.5127V82.3574C39.4043 81.7148 39.5205 81.1657 39.7529 80.71C39.9899 80.2497 40.3317 79.901 40.7783 79.6641C41.2295 79.4225 41.7695 79.3018 42.3984 79.3018C43.0273 79.3018 43.5651 79.4225 44.0117 79.6641C44.4629 79.901 44.8047 80.2497 45.0371 80.71C45.2741 81.1657 45.3926 81.7148 45.3926 82.3574V83.5332C45.3926 84.1803 45.2741 84.734 45.0371 85.1943C44.8047 85.6501 44.4629 85.9987 44.0117 86.2402C43.5651 86.4818 43.0273 86.6025 42.3984 86.6025ZM42.3984 85.0371C42.8314 85.0371 43.1663 84.9072 43.4033 84.6475C43.6403 84.3831 43.7588 84.0117 43.7588 83.5332V82.3574C43.7588 81.8835 43.6403 81.5166 43.4033 81.2568C43.1663 80.9971 42.8314 80.8672 42.3984 80.8672C41.9655 80.8672 41.6305 80.9971 41.3936 81.2568C41.1566 81.5166 41.0381 81.8835 41.0381 82.3574V83.5332C41.0381 84.0117 41.1543 84.3831 41.3867 84.6475C41.6237 84.9072 41.9609 85.0371 42.3984 85.0371ZM47.2383 79.4043H48.9404V86.5H47.2383V79.4043ZM51.1895 81.2295C51.0801 81.111 50.9456 81.0221 50.7861 80.9629C50.6266 80.8991 50.4421 80.8672 50.2324 80.8672C49.8223 80.8672 49.5033 80.9902 49.2754 81.2363C49.0521 81.4779 48.9404 81.8151 48.9404 82.248L48.7969 80.6416C49.002 80.2178 49.2686 79.8896 49.5967 79.6572C49.9294 79.4202 50.2939 79.3018 50.6904 79.3018C51.0003 79.3018 51.2806 79.3496 51.5312 79.4453C51.7819 79.5365 52.0007 79.6732 52.1875 79.8555L51.1895 81.2295ZM58.7979 86.6025C58.3193 86.6025 57.859 86.557 57.417 86.4658C56.9795 86.3701 56.5671 86.2311 56.1797 86.0488C55.7969 85.8665 55.446 85.641 55.127 85.3721L55.9951 84.0664C56.3779 84.39 56.8063 84.6361 57.2803 84.8047C57.7588 84.9688 58.2646 85.0508 58.7979 85.0508C59.4632 85.0508 59.9782 84.9323 60.3428 84.6953C60.7119 84.4583 60.8965 84.1234 60.8965 83.6904V83.6836C60.8965 83.3783 60.8145 83.1367 60.6504 82.959C60.4863 82.7767 60.2721 82.6445 60.0078 82.5625C59.7435 82.4759 59.404 82.3962 58.9893 82.3232C58.9756 82.3187 58.9619 82.3164 58.9482 82.3164C58.9346 82.3164 58.9209 82.3141 58.9072 82.3096L58.7842 82.2891C58.1188 82.1797 57.5719 82.0498 57.1436 81.8994C56.7152 81.749 56.3506 81.4801 56.0498 81.0928C55.749 80.7054 55.5986 80.1562 55.5986 79.4453V79.4385C55.5986 78.8096 55.7399 78.2718 56.0225 77.8252C56.305 77.3786 56.7152 77.0391 57.2529 76.8066C57.7907 76.5742 58.4378 76.458 59.1943 76.458C59.5498 76.458 59.9053 76.499 60.2607 76.5811C60.6208 76.6585 60.9717 76.7747 61.3135 76.9297C61.6598 77.0801 61.9948 77.2692 62.3184 77.4971L61.5254 78.8438C61.1426 78.5703 60.7529 78.363 60.3564 78.2217C59.96 78.0804 59.5726 78.0098 59.1943 78.0098C58.5654 78.0098 58.0778 78.126 57.7314 78.3584C57.3896 78.5863 57.2188 78.9098 57.2188 79.3291V79.3359C57.2188 79.6504 57.3076 79.8988 57.4854 80.0811C57.6631 80.2633 57.8841 80.3978 58.1484 80.4844C58.4173 80.5664 58.791 80.6553 59.2695 80.751C59.2878 80.7555 59.3037 80.7601 59.3174 80.7646C59.3356 80.7646 59.3538 80.7669 59.3721 80.7715C59.3949 80.776 59.4199 80.7806 59.4473 80.7852C59.4746 80.7897 59.4997 80.7943 59.5225 80.7988C60.1377 80.9219 60.6504 81.07 61.0605 81.2432C61.4753 81.4163 61.8216 81.6943 62.0996 82.0771C62.3776 82.46 62.5166 82.9818 62.5166 83.6426V83.6562C62.5166 84.276 62.3708 84.807 62.0791 85.249C61.7874 85.6911 61.3636 86.0283 60.8076 86.2607C60.2516 86.4886 59.5817 86.6025 58.7979 86.6025ZM68.1904 82.002C68.1904 81.6055 68.0719 81.2979 67.835 81.0791C67.6025 80.8604 67.2721 80.751 66.8438 80.751C66.5703 80.751 66.3014 80.7943 66.0371 80.8809C65.7728 80.9674 65.5358 81.0882 65.3262 81.2432L64.2393 80.3271C64.5173 80.0036 64.8818 79.7529 65.333 79.5752C65.7842 79.3929 66.2855 79.3018 66.8369 79.3018C67.4385 79.3018 67.9535 79.4066 68.3818 79.6162C68.8102 79.8213 69.1361 80.1221 69.3594 80.5186C69.5872 80.9105 69.7012 81.3844 69.7012 81.9404V86.5H68.1904V82.002ZM66.3311 86.6025C65.5153 86.6025 64.9046 86.4225 64.499 86.0625C64.0934 85.6979 63.8906 85.1465 63.8906 84.4082C63.8906 83.7064 64.0957 83.18 64.5059 82.8291C64.916 82.4782 65.5312 82.3027 66.3516 82.3027H68.252L68.3477 83.5742H66.3584C66.0348 83.5742 65.791 83.6426 65.627 83.7793C65.4674 83.916 65.3877 84.1257 65.3877 84.4082C65.3877 84.7044 65.4925 84.9255 65.7021 85.0713C65.9118 85.2126 66.2285 85.2832 66.6523 85.2832C67.1719 85.2832 67.557 85.2262 67.8076 85.1123C68.0628 84.9984 68.1904 84.8206 68.1904 84.5791L68.334 85.5908C68.2565 85.8141 68.1198 86.001 67.9238 86.1514C67.7324 86.3018 67.5 86.4157 67.2266 86.4932C66.9531 86.5661 66.6546 86.6025 66.3311 86.6025ZM80.0576 82.3027C80.0576 81.8424 79.9437 81.4893 79.7158 81.2432C79.488 80.9925 79.1644 80.8672 78.7451 80.8672C78.3486 80.8672 78.041 80.988 77.8223 81.2295C77.6081 81.4665 77.501 81.806 77.501 82.248L77.1865 80.7441C77.4098 80.2839 77.7015 79.9284 78.0615 79.6777C78.4261 79.4271 78.8294 79.3018 79.2715 79.3018C79.7819 79.3018 80.2171 79.418 80.5771 79.6504C80.9417 79.8828 81.2174 80.2246 81.4043 80.6758C81.5957 81.1224 81.6914 81.6624 81.6914 82.2959V86.5H80.0576V82.3027ZM71.6836 79.4043H73.3174V86.5H71.6836V79.4043ZM75.874 82.3027C75.874 81.8424 75.7601 81.4893 75.5322 81.2432C75.3089 80.9925 74.9899 80.8672 74.5752 80.8672C74.1742 80.8672 73.8643 80.9766 73.6455 81.1953C73.4268 81.4095 73.3174 81.7148 73.3174 82.1113L73.1738 80.6416C73.388 80.2087 73.6615 79.8783 73.9941 79.6504C74.3268 79.418 74.7074 79.3018 75.1357 79.3018C75.6325 79.3018 76.0586 79.418 76.4141 79.6504C76.7695 79.8828 77.0384 80.2246 77.2207 80.6758C77.4076 81.1224 77.501 81.6624 77.501 82.2959V86.5H75.874V82.3027ZM86.6475 86.6025C85.9775 86.6025 85.4056 86.4795 84.9316 86.2334C84.4577 85.9873 84.0954 85.6273 83.8447 85.1533C83.5941 84.6748 83.4688 84.0983 83.4688 83.4238V82.624C83.4688 81.9222 83.5872 81.3229 83.8242 80.8262C84.0658 80.3294 84.4144 79.9512 84.8701 79.6914C85.3304 79.4316 85.8818 79.3018 86.5244 79.3018C87.1305 79.3018 87.6478 79.4544 88.0762 79.7598C88.5091 80.0605 88.8372 80.498 89.0605 81.0723C89.2884 81.6465 89.4023 82.3392 89.4023 83.1504V83.6152H84.583V82.4189H87.8848L87.8779 82.3438C87.8324 81.847 87.6934 81.4619 87.4609 81.1885C87.2285 80.915 86.9163 80.7783 86.5244 80.7783C86.0322 80.7783 85.6517 80.9333 85.3828 81.2432C85.1139 81.5485 84.9795 81.9837 84.9795 82.5488V83.4512C84.9795 83.9889 85.1253 84.4036 85.417 84.6953C85.7087 84.9824 86.1188 85.126 86.6475 85.126C86.9163 85.126 87.1807 85.0758 87.4404 84.9756C87.7048 84.8708 87.9417 84.7272 88.1514 84.5449L89.2178 85.543C88.8577 85.8802 88.4521 86.1423 88.001 86.3291C87.5544 86.5114 87.1032 86.6025 86.6475 86.6025Z" fill="white"/>
<path d="M6.21777 101.561H7.44824L9.41699 108.772L10.9346 101.561H12.623L10.2646 111.5H8.67188L6.87402 104.555L4.99414 111.5H3.40137L1.04297 101.561H2.73145L4.24902 108.772L6.21777 101.561ZM13.7373 101.561H15.3643V103.194H13.7373V101.561ZM13.7373 104.404H15.3643V111.5H13.7373V104.404ZM17.2988 104.404H18.9326V111.5H17.2988V104.404ZM21.5029 107.2C21.5029 106.776 21.389 106.448 21.1611 106.216C20.9333 105.983 20.6097 105.867 20.1904 105.867C19.7894 105.867 19.4795 105.977 19.2607 106.195C19.042 106.41 18.9326 106.715 18.9326 107.111L18.7891 105.642C19.0033 105.204 19.2721 104.871 19.5957 104.644C19.9238 104.416 20.3089 104.302 20.751 104.302C21.5075 104.302 22.0931 104.555 22.5078 105.061C22.9271 105.562 23.1367 106.273 23.1367 107.193V111.5H21.5029V107.2Z" fill="#6871C1"/>
<path d="M34.6699 111.603C34.2233 111.603 33.7812 111.548 33.3438 111.438C32.9108 111.325 32.5143 111.167 32.1543 110.967C31.7988 110.766 31.5049 110.534 31.2725 110.27L32.1748 108.93C32.5166 109.285 32.8994 109.556 33.3232 109.743C33.7471 109.925 34.196 110.017 34.6699 110.017C35.2578 110.017 35.7021 109.903 36.0029 109.675C36.3083 109.442 36.4609 109.103 36.4609 108.656V108.649C36.4609 108.353 36.3903 108.118 36.249 107.945C36.1077 107.772 35.9232 107.645 35.6953 107.562C35.472 107.476 35.1826 107.398 34.8271 107.33C34.818 107.326 34.8066 107.323 34.793 107.323C34.7839 107.323 34.7725 107.321 34.7588 107.316C34.7406 107.312 34.7201 107.31 34.6973 107.31C34.679 107.305 34.6608 107.3 34.6426 107.296C34.0182 107.182 33.5124 107.052 33.125 106.906C32.7376 106.76 32.4049 106.496 32.127 106.113C31.849 105.73 31.71 105.186 31.71 104.479V104.473C31.71 103.816 31.8353 103.265 32.0859 102.818C32.3411 102.372 32.7148 102.035 33.207 101.807C33.7038 101.574 34.3122 101.458 35.0322 101.458C35.3512 101.458 35.6725 101.494 35.9961 101.567C36.3242 101.64 36.6455 101.75 36.96 101.896C37.279 102.041 37.5866 102.219 37.8828 102.429L37.0625 103.796C36.7253 103.55 36.3835 103.363 36.0371 103.235C35.6953 103.108 35.3604 103.044 35.0322 103.044C34.4899 103.044 34.0752 103.153 33.7881 103.372C33.5055 103.591 33.3643 103.91 33.3643 104.329V104.336C33.3643 104.655 33.444 104.906 33.6035 105.088C33.763 105.27 33.9635 105.405 34.2051 105.491C34.4466 105.573 34.777 105.66 35.1963 105.751C35.21 105.751 35.2214 105.753 35.2305 105.758C35.2441 105.762 35.2578 105.765 35.2715 105.765C35.2943 105.769 35.3171 105.774 35.3398 105.778C35.3626 105.783 35.3854 105.787 35.4082 105.792C35.9642 105.915 36.429 106.063 36.8027 106.236C37.1764 106.41 37.4886 106.69 37.7393 107.077C37.9899 107.46 38.1152 107.982 38.1152 108.643V108.656C38.1152 109.294 37.9831 109.834 37.7188 110.276C37.4544 110.714 37.0671 111.044 36.5566 111.268C36.0462 111.491 35.4173 111.603 34.6699 111.603ZM34.0205 111.062H35.6475V112.71H34.0205V111.062ZM34.0205 100.351H35.6475V101.909H34.0205V100.351ZM39.6123 110.051L43.0508 105.498C43.2285 105.266 43.3652 105.026 43.4609 104.78C43.5612 104.53 43.6113 104.297 43.6113 104.083V104.069C43.6113 103.737 43.5088 103.479 43.3037 103.297C43.1032 103.115 42.8161 103.023 42.4424 103.023C42.0824 103.023 41.7907 103.135 41.5674 103.358C41.3486 103.577 41.2165 103.889 41.1709 104.295V104.302H39.4893V104.295C39.5531 103.698 39.7126 103.188 39.9678 102.764C40.223 102.34 40.5602 102.016 40.9795 101.793C41.3988 101.57 41.8818 101.458 42.4287 101.458C43.0348 101.458 43.5521 101.561 43.9805 101.766C44.4089 101.966 44.7347 102.26 44.958 102.647C45.1859 103.035 45.2998 103.502 45.2998 104.049V104.056C45.2998 104.457 45.2223 104.865 45.0674 105.279C44.917 105.689 44.7074 106.075 44.4385 106.435L41.7725 109.935H45.3545V111.5H39.6123V110.051ZM52.2656 102.805L49.8662 111.5H48.1094L50.4746 103.126H48.3555V104.589H46.7217V101.561H52.2656V102.805ZM56.8936 111.603C56.3786 111.603 55.916 111.495 55.5059 111.281C55.1003 111.067 54.7721 110.755 54.5215 110.345C54.2708 109.93 54.1136 109.438 54.0498 108.868V108.861H55.6836V108.868C55.7246 109.233 55.8522 109.518 56.0664 109.723C56.2806 109.923 56.5609 110.023 56.9072 110.023C57.2946 110.023 57.5931 109.896 57.8027 109.641C58.0169 109.385 58.124 109.023 58.124 108.554V107.72C58.124 107.255 58.0215 106.895 57.8164 106.64C57.6159 106.384 57.3311 106.257 56.9619 106.257C56.7067 106.257 56.4743 106.325 56.2646 106.462C56.0596 106.599 55.8978 106.79 55.7793 107.036H54.2686V101.561H59.4707V103.126H55.9023V105.122C56.0573 104.981 56.2487 104.871 56.4766 104.794C56.709 104.716 56.9414 104.678 57.1738 104.678C57.7161 104.678 58.181 104.796 58.5684 105.033C58.9557 105.27 59.2497 105.617 59.4502 106.072C59.6553 106.528 59.7578 107.077 59.7578 107.72V108.554C59.7578 109.196 59.6439 109.745 59.416 110.201C59.1927 110.657 58.8669 111.006 58.4385 111.247C58.0101 111.484 57.4951 111.603 56.8936 111.603ZM61.4941 109.866H63.1211V111.5H61.4941V109.866ZM64.7139 108.513L67.9131 101.567H69.6904L66.5732 108.431H71.2422V109.976H64.7139V108.513ZM68.8633 105.655H70.4766V111.507H68.8633V105.655ZM75.4941 111.603C74.9154 111.603 74.4027 111.498 73.9561 111.288C73.5094 111.078 73.1517 110.773 72.8828 110.372C72.6185 109.966 72.4613 109.483 72.4111 108.923H74.0859C74.1224 109.169 74.1976 109.374 74.3115 109.538C74.4255 109.698 74.5736 109.818 74.7559 109.9C74.9382 109.982 75.1501 110.023 75.3916 110.023C75.8018 110.023 76.1185 109.914 76.3418 109.695C76.5651 109.472 76.6768 109.158 76.6768 108.752V108.485C76.6768 108.048 76.5765 107.711 76.376 107.474C76.18 107.232 75.8975 107.111 75.5283 107.111H74.7559V105.553H75.5283C75.8428 105.553 76.0843 105.45 76.2529 105.245C76.4261 105.035 76.5127 104.744 76.5127 104.37V104.131C76.5127 103.78 76.4193 103.511 76.2324 103.324C76.0501 103.133 75.7904 103.037 75.4531 103.037C75.248 103.037 75.0635 103.08 74.8994 103.167C74.7399 103.254 74.6032 103.386 74.4893 103.563C74.3753 103.737 74.2933 103.951 74.2432 104.206H72.5752C72.6481 103.632 72.8145 103.137 73.0742 102.723C73.3385 102.308 73.6758 101.993 74.0859 101.779C74.5007 101.565 74.9678 101.458 75.4873 101.458C76.3532 101.458 77.0231 101.684 77.4971 102.135C77.9756 102.586 78.2148 103.222 78.2148 104.042V104.274C78.2148 104.753 78.0895 105.17 77.8389 105.525C77.5882 105.881 77.2327 106.143 76.7725 106.312C77.2829 106.425 77.6771 106.685 77.9551 107.091C78.2376 107.492 78.3789 108.005 78.3789 108.629V108.861C78.3789 109.44 78.265 109.935 78.0371 110.345C77.8138 110.755 77.4857 111.067 77.0527 111.281C76.6198 111.495 76.1003 111.603 75.4941 111.603Z" fill="#FFD05B"/>
<g clip-path="url(#clip0_1_958)">
<path d="M99.5001 106C99.5001 108.111 98.6827 110.03 97.3472 111.46C95.8871 113.023 93.8077 113.861 91.5001 113.861C87.0819 113.861 83.6532 110.418 83.6532 106C83.6532 103.693 84.477 101.613 86.0398 100.153C87.4694 98.8175 89.3893 98 91.5001 98C95.9184 98 99.5001 101.582 99.5001 106Z" fill="#FFD05B"/>
<path d="M91.5 112.452C95.0632 112.452 97.9517 109.563 97.9517 106C97.9517 102.437 95.0632 99.5484 91.5 99.5484C87.9369 99.5484 85.0484 102.437 85.0484 106C85.0484 109.563 87.9369 112.452 91.5 112.452Z" fill="#FFEAA5"/>
<path d="M96.9193 106C96.9193 107.381 96.403 108.641 95.553 109.598C94.5603 110.715 93.1123 111.278 91.4999 111.278C88.5069 111.278 86.2593 108.993 86.2593 106C86.2593 104.389 86.7839 102.942 87.9002 101.949C88.8574 101.098 90.1183 100.581 91.4999 100.581C94.493 100.581 96.9193 103.007 96.9193 106Z" fill="#FC9B40"/>
<path d="M91.8871 113.613C87.4688 113.613 83.8871 110.031 83.8871 105.613C83.8871 103.502 84.7042 101.583 86.0397 100.153C84.4767 101.613 83.5 103.692 83.5 106C83.5 110.418 87.0817 114 91.5 114C93.8076 114 95.8869 113.023 97.347 111.46C95.9175 112.796 93.9978 113.613 91.8871 113.613Z" fill="#FFC244"/>
<path d="M91.95 110.969C88.957 110.969 86.5307 108.543 86.5307 105.55C86.5307 104.168 87.0488 102.906 87.9002 101.949C86.7841 102.941 86.0805 104.389 86.0805 106C86.0805 108.993 88.5068 111.419 91.4998 111.419C93.111 111.419 94.5603 110.714 95.5529 109.598C94.5957 110.449 93.3319 110.969 91.95 110.969Z" fill="#FC9B40"/>
</g>
<defs>
<clipPath id="clip0_1_958">
<rect width="16" height="16" fill="white" transform="translate(83.5 98)"/>
</clipPath>
</defs>
</svg>
